<mxfile host="app.diagrams.net" modified="2023-08-29T19:21:38.713Z" agent="Mozilla/5.0 (Windows NT 10.0; Win64; x64) AppleWebKit/537.36 (KHTML, like Gecko) Chrome/116.0.0.0 Safari/537.36" etag="mEo-Z7J7k51cAH-xpDFP" version="21.6.9" type="device">
  <diagram name="Strona-1" id="rQ5fOyX2oOd5brFK75F_">
    <mxGraphModel dx="1750" dy="1730" grid="1" gridSize="10" guides="1" tooltips="1" connect="1" arrows="1" fold="1" page="1" pageScale="1" pageWidth="1169" pageHeight="827" math="0" shadow="0">
      <root>
        <mxCell id="0" />
        <mxCell id="1" parent="0" />
        <mxCell id="bFrb8rs4F0NLGNH35bjM-3" value="vga_timing&lt;br&gt;(u_vga_timing)" style="rounded=0;whiteSpace=wrap;html=1;fillColor=#dae8fc;strokeColor=#6c8ebf;" vertex="1" parent="1">
          <mxGeometry x="80" y="40" width="120" height="80" as="geometry" />
        </mxCell>
        <mxCell id="bFrb8rs4F0NLGNH35bjM-8" value="draw_bg&lt;br&gt;(u_draw_bg)" style="rounded=0;whiteSpace=wrap;html=1;fillColor=#dae8fc;strokeColor=#6c8ebf;" vertex="1" parent="1">
          <mxGeometry x="320" y="40" width="120" height="80" as="geometry" />
        </mxCell>
        <mxCell id="bFrb8rs4F0NLGNH35bjM-12" value="draw_rect&lt;br&gt;(u_draw_my_turn)" style="rounded=0;whiteSpace=wrap;html=1;fillColor=#dae8fc;strokeColor=#6c8ebf;" vertex="1" parent="1">
          <mxGeometry x="800" y="40" width="120" height="80" as="geometry" />
        </mxCell>
        <mxCell id="bFrb8rs4F0NLGNH35bjM-15" value="draw_grid&lt;br&gt;(u_draw_my_grid)" style="rounded=0;whiteSpace=wrap;html=1;fillColor=#dae8fc;strokeColor=#6c8ebf;" vertex="1" parent="1">
          <mxGeometry x="560" y="320" width="120" height="80" as="geometry" />
        </mxCell>
        <mxCell id="bFrb8rs4F0NLGNH35bjM-18" value="draw_grid&lt;br style=&quot;border-color: var(--border-color);&quot;&gt;(u_draw_enemy_grid)" style="rounded=0;whiteSpace=wrap;html=1;fillColor=#dae8fc;strokeColor=#6c8ebf;" vertex="1" parent="1">
          <mxGeometry x="800" y="320" width="120" height="80" as="geometry" />
        </mxCell>
        <mxCell id="bFrb8rs4F0NLGNH35bjM-25" value="draw_ships&lt;br&gt;(u_draw_my_ships)" style="rounded=0;whiteSpace=wrap;html=1;fillColor=#dae8fc;strokeColor=#6c8ebf;" vertex="1" parent="1">
          <mxGeometry x="1040" y="320" width="120" height="80" as="geometry" />
        </mxCell>
        <mxCell id="bFrb8rs4F0NLGNH35bjM-32" value="draw_ships&lt;br style=&quot;border-color: var(--border-color);&quot;&gt;(u_draw_enemy_ships)" style="rounded=0;whiteSpace=wrap;html=1;fillColor=#dae8fc;strokeColor=#6c8ebf;" vertex="1" parent="1">
          <mxGeometry x="80" y="600" width="120" height="80" as="geometry" />
        </mxCell>
        <mxCell id="bFrb8rs4F0NLGNH35bjM-35" value="draw_mouse&lt;br&gt;(u_draw_mouse)" style="rounded=0;whiteSpace=wrap;html=1;fillColor=#dae8fc;strokeColor=#6c8ebf;" vertex="1" parent="1">
          <mxGeometry x="800" y="600" width="120" height="80" as="geometry" />
        </mxCell>
        <mxCell id="bFrb8rs4F0NLGNH35bjM-39" value="draw_rect&lt;br&gt;(u_draw_start_btn)" style="rounded=0;whiteSpace=wrap;html=1;fillColor=#dae8fc;strokeColor=#6c8ebf;" vertex="1" parent="1">
          <mxGeometry x="560" y="40" width="120" height="80" as="geometry" />
        </mxCell>
        <mxCell id="bFrb8rs4F0NLGNH35bjM-43" value="draw_rect&lt;br&gt;(u_draw_enemy_turn)" style="rounded=0;whiteSpace=wrap;html=1;fillColor=#dae8fc;strokeColor=#6c8ebf;" vertex="1" parent="1">
          <mxGeometry x="1040" y="40" width="120" height="80" as="geometry" />
        </mxCell>
        <mxCell id="bFrb8rs4F0NLGNH35bjM-47" value="draw_rect&lt;br&gt;(u_draw_win)" style="rounded=0;whiteSpace=wrap;html=1;fillColor=#dae8fc;strokeColor=#6c8ebf;" vertex="1" parent="1">
          <mxGeometry x="80" y="320" width="120" height="80" as="geometry" />
        </mxCell>
        <mxCell id="bFrb8rs4F0NLGNH35bjM-51" value="draw_rect&lt;br&gt;(u_draw_lose)" style="rounded=0;whiteSpace=wrap;html=1;fillColor=#dae8fc;strokeColor=#6c8ebf;" vertex="1" parent="1">
          <mxGeometry x="320" y="320" width="120" height="80" as="geometry" />
        </mxCell>
        <mxCell id="bFrb8rs4F0NLGNH35bjM-56" value="MouseCtl (u_MouseCtl)" style="rounded=0;whiteSpace=wrap;html=1;fillColor=#ffcc99;strokeColor=#36393d;" vertex="1" parent="1">
          <mxGeometry x="800" y="760" width="120" height="60" as="geometry" />
        </mxCell>
        <mxCell id="bFrb8rs4F0NLGNH35bjM-62" value="main_fsm&lt;br&gt;(u_main_fsm)" style="whiteSpace=wrap;html=1;aspect=fixed;strokeColor=#36393d;fillColor=#ffcc99;" vertex="1" parent="1">
          <mxGeometry x="540" y="-210" width="120" height="120" as="geometry" />
        </mxCell>
        <mxCell id="bFrb8rs4F0NLGNH35bjM-65" value="debounce&lt;br&gt;(u_mouse_debounce)" style="rounded=0;whiteSpace=wrap;html=1;fillColor=#eeeeee;strokeColor=#36393d;" vertex="1" parent="1">
          <mxGeometry x="1130" y="-120" width="120" height="60" as="geometry" />
        </mxCell>
        <mxCell id="bFrb8rs4F0NLGNH35bjM-74" value="player_ctrl&lt;br&gt;(u_player_ctrl)" style="whiteSpace=wrap;html=1;strokeColor=#36393d;fillColor=#ffcc99;" vertex="1" parent="1">
          <mxGeometry x="320" y="-210" width="120" height="120" as="geometry" />
        </mxCell>
        <mxCell id="bFrb8rs4F0NLGNH35bjM-83" value="&lt;font style=&quot;font-size: 11px;&quot;&gt;draw_rect_char&lt;br&gt;(u_draw_text_my_ships&lt;/font&gt;)" style="rounded=0;whiteSpace=wrap;html=1;fillColor=#dae8fc;strokeColor=#6c8ebf;" vertex="1" parent="1">
          <mxGeometry x="320" y="600" width="120" height="80" as="geometry" />
        </mxCell>
        <mxCell id="bFrb8rs4F0NLGNH35bjM-86" value="&lt;font style=&quot;font-size: 11px;&quot;&gt;draw_rect_char&lt;br&gt;(u_draw_text_my_ships&lt;/font&gt;)" style="rounded=0;whiteSpace=wrap;html=1;fillColor=#dae8fc;strokeColor=#6c8ebf;" vertex="1" parent="1">
          <mxGeometry x="560" y="600" width="120" height="80" as="geometry" />
        </mxCell>
        <mxCell id="bFrb8rs4F0NLGNH35bjM-89" value="&lt;font style=&quot;font-size: 9px;&quot;&gt;font_rom (u_my_font)&lt;/font&gt;" style="rounded=0;whiteSpace=wrap;html=1;fillColor=#e1d5e7;strokeColor=#9673a6;" vertex="1" parent="1">
          <mxGeometry x="200" y="760" width="60" height="60" as="geometry" />
        </mxCell>
        <mxCell id="bFrb8rs4F0NLGNH35bjM-94" value="&lt;font style=&quot;font-size: 8px;&quot;&gt;char_rom_16x16&lt;br&gt;(u_my_rom)&lt;br&gt;&lt;/font&gt;" style="rounded=0;whiteSpace=wrap;html=1;fillColor=#e1d5e7;strokeColor=#9673a6;" vertex="1" parent="1">
          <mxGeometry x="350" y="760" width="60" height="60" as="geometry" />
        </mxCell>
        <mxCell id="bFrb8rs4F0NLGNH35bjM-99" value="&lt;font style=&quot;font-size: 9px;&quot;&gt;font_rom (u_en_font)&lt;/font&gt;" style="rounded=0;whiteSpace=wrap;html=1;fillColor=#e1d5e7;strokeColor=#9673a6;" vertex="1" parent="1">
          <mxGeometry x="440" y="760" width="60" height="60" as="geometry" />
        </mxCell>
        <mxCell id="bFrb8rs4F0NLGNH35bjM-104" value="&lt;font style=&quot;font-size: 8px;&quot;&gt;char_rom_16x16&lt;br&gt;(u_en_rom)&lt;br&gt;&lt;/font&gt;" style="rounded=0;whiteSpace=wrap;html=1;fillColor=#e1d5e7;strokeColor=#9673a6;" vertex="1" parent="1">
          <mxGeometry x="590" y="760" width="60" height="60" as="geometry" />
        </mxCell>
        <mxCell id="bFrb8rs4F0NLGNH35bjM-106" value="board_mem&lt;br&gt;(u_en_board_mem)" style="rounded=0;whiteSpace=wrap;html=1;fillColor=#ffcccc;strokeColor=#36393d;" vertex="1" parent="1">
          <mxGeometry x="800" y="-210" width="120" height="60" as="geometry" />
        </mxCell>
        <mxCell id="bFrb8rs4F0NLGNH35bjM-108" value="board_mem&lt;br&gt;(u_my_board_mem)" style="rounded=0;whiteSpace=wrap;html=1;fillColor=#ffcccc;strokeColor=#36393d;" vertex="1" parent="1">
          <mxGeometry x="1045" y="-210" width="110" height="60" as="geometry" />
        </mxCell>
        <mxCell id="bFrb8rs4F0NLGNH35bjM-116" value="disp_hex_mux&lt;br&gt;(u_disp_hex_mux)" style="rounded=0;whiteSpace=wrap;html=1;fillColor=#eeeeee;strokeColor=#36393d;" vertex="1" parent="1">
          <mxGeometry x="1225" y="-210" width="150" height="60" as="geometry" />
        </mxCell>
        <mxCell id="bFrb8rs4F0NLGNH35bjM-123" value="image_rom&lt;br&gt;(u_start_btn_img)" style="rounded=0;whiteSpace=wrap;html=1;" vertex="1" parent="1">
          <mxGeometry x="560" y="160" width="120" height="40" as="geometry" />
        </mxCell>
        <mxCell id="bFrb8rs4F0NLGNH35bjM-124" value="image_rom&lt;br&gt;(u_my_turn_img)" style="rounded=0;whiteSpace=wrap;html=1;" vertex="1" parent="1">
          <mxGeometry x="800" y="160" width="120" height="40" as="geometry" />
        </mxCell>
        <mxCell id="bFrb8rs4F0NLGNH35bjM-125" value="image_rom&lt;br&gt;(u_en_turn_img)" style="rounded=0;whiteSpace=wrap;html=1;" vertex="1" parent="1">
          <mxGeometry x="1040" y="160" width="120" height="40" as="geometry" />
        </mxCell>
        <mxCell id="bFrb8rs4F0NLGNH35bjM-126" value="image_rom&lt;br&gt;(u_win_img)" style="rounded=0;whiteSpace=wrap;html=1;" vertex="1" parent="1">
          <mxGeometry x="80" y="440" width="120" height="40" as="geometry" />
        </mxCell>
        <mxCell id="bFrb8rs4F0NLGNH35bjM-127" value="image_rom&lt;br&gt;(u_lose_img)" style="rounded=0;whiteSpace=wrap;html=1;" vertex="1" parent="1">
          <mxGeometry x="320" y="440" width="120" height="40" as="geometry" />
        </mxCell>
        <mxCell id="bFrb8rs4F0NLGNH35bjM-132" style="edgeStyle=orthogonalEdgeStyle;rounded=0;orthogonalLoop=1;jettySize=auto;html=1;exitDx=0;exitDy=0;entryX=0.5;entryY=0;entryDx=0;entryDy=0;" edge="1" parent="1" source="bFrb8rs4F0NLGNH35bjM-133" target="bFrb8rs4F0NLGNH35bjM-3">
          <mxGeometry relative="1" as="geometry" />
        </mxCell>
        <mxCell id="bFrb8rs4F0NLGNH35bjM-221" style="edgeStyle=orthogonalEdgeStyle;rounded=0;orthogonalLoop=1;jettySize=auto;html=1;exitDx=0;exitDy=0;entryX=0.5;entryY=1;entryDx=0;entryDy=0;strokeColor=#99CCFF;" edge="1" parent="1" source="bFrb8rs4F0NLGNH35bjM-223" target="bFrb8rs4F0NLGNH35bjM-74">
          <mxGeometry relative="1" as="geometry">
            <Array as="points">
              <mxPoint x="170" y="-40" />
              <mxPoint x="380" y="-40" />
            </Array>
          </mxGeometry>
        </mxCell>
        <mxCell id="bFrb8rs4F0NLGNH35bjM-244" style="edgeStyle=orthogonalEdgeStyle;rounded=0;orthogonalLoop=1;jettySize=auto;html=1;startArrow=classic;startFill=1;endArrow=none;endFill=0;" edge="1" parent="1" source="bFrb8rs4F0NLGNH35bjM-131">
          <mxGeometry relative="1" as="geometry">
            <mxPoint x="140" y="-270" as="targetPoint" />
          </mxGeometry>
        </mxCell>
        <mxCell id="bFrb8rs4F0NLGNH35bjM-245" value="clk_100MHz" style="edgeLabel;html=1;align=center;verticalAlign=middle;resizable=0;points=[];" vertex="1" connectable="0" parent="bFrb8rs4F0NLGNH35bjM-244">
          <mxGeometry x="0.3675" y="2" relative="1" as="geometry">
            <mxPoint x="2" y="-29" as="offset" />
          </mxGeometry>
        </mxCell>
        <mxCell id="bFrb8rs4F0NLGNH35bjM-131" value="clk_wiz_0&lt;br&gt;(u_clk_wiz_0)" style="whiteSpace=wrap;html=1;aspect=fixed;fillColor=#008a00;strokeColor=#005700;fontColor=#ffffff;" vertex="1" parent="1">
          <mxGeometry x="80" y="-210" width="120" height="120" as="geometry" />
        </mxCell>
        <mxCell id="bFrb8rs4F0NLGNH35bjM-134" value="" style="edgeStyle=orthogonalEdgeStyle;rounded=0;orthogonalLoop=1;jettySize=auto;html=1;entryDx=0;entryDy=0;endArrow=none;endFill=0;" edge="1" parent="1" target="bFrb8rs4F0NLGNH35bjM-133">
          <mxGeometry relative="1" as="geometry">
            <mxPoint x="110" y="-90" as="sourcePoint" />
            <mxPoint x="140" y="40" as="targetPoint" />
            <Array as="points">
              <mxPoint x="110" y="-90" />
              <mxPoint x="110" />
            </Array>
          </mxGeometry>
        </mxCell>
        <mxCell id="bFrb8rs4F0NLGNH35bjM-135" style="edgeStyle=orthogonalEdgeStyle;rounded=0;orthogonalLoop=1;jettySize=auto;html=1;entryX=0.5;entryY=0;entryDx=0;entryDy=0;" edge="1" parent="1" source="bFrb8rs4F0NLGNH35bjM-136" target="bFrb8rs4F0NLGNH35bjM-8">
          <mxGeometry relative="1" as="geometry" />
        </mxCell>
        <mxCell id="bFrb8rs4F0NLGNH35bjM-133" value="" style="shape=waypoint;sketch=0;size=6;pointerEvents=1;points=[];fillColor=none;resizable=0;rotatable=0;perimeter=centerPerimeter;snapToPoint=1;" vertex="1" parent="1">
          <mxGeometry x="130" y="-10" width="20" height="20" as="geometry" />
        </mxCell>
        <mxCell id="bFrb8rs4F0NLGNH35bjM-137" value="" style="edgeStyle=orthogonalEdgeStyle;rounded=0;orthogonalLoop=1;jettySize=auto;html=1;entryDx=0;entryDy=0;endArrow=none;endFill=0;" edge="1" parent="1" source="bFrb8rs4F0NLGNH35bjM-133" target="bFrb8rs4F0NLGNH35bjM-136">
          <mxGeometry relative="1" as="geometry">
            <mxPoint x="140" as="sourcePoint" />
            <mxPoint x="380" y="40" as="targetPoint" />
          </mxGeometry>
        </mxCell>
        <mxCell id="bFrb8rs4F0NLGNH35bjM-138" style="edgeStyle=orthogonalEdgeStyle;rounded=0;orthogonalLoop=1;jettySize=auto;html=1;entryX=0.5;entryY=0;entryDx=0;entryDy=0;" edge="1" parent="1" source="bFrb8rs4F0NLGNH35bjM-140" target="bFrb8rs4F0NLGNH35bjM-39">
          <mxGeometry relative="1" as="geometry" />
        </mxCell>
        <mxCell id="bFrb8rs4F0NLGNH35bjM-136" value="" style="shape=waypoint;sketch=0;size=6;pointerEvents=1;points=[];fillColor=none;resizable=0;rotatable=0;perimeter=centerPerimeter;snapToPoint=1;" vertex="1" parent="1">
          <mxGeometry x="370" y="-10" width="20" height="20" as="geometry" />
        </mxCell>
        <mxCell id="bFrb8rs4F0NLGNH35bjM-141" value="" style="edgeStyle=orthogonalEdgeStyle;rounded=0;orthogonalLoop=1;jettySize=auto;html=1;entryDx=0;entryDy=0;endArrow=none;endFill=0;" edge="1" parent="1" source="bFrb8rs4F0NLGNH35bjM-136" target="bFrb8rs4F0NLGNH35bjM-140">
          <mxGeometry relative="1" as="geometry">
            <mxPoint x="380" as="sourcePoint" />
            <mxPoint x="620" y="40" as="targetPoint" />
          </mxGeometry>
        </mxCell>
        <mxCell id="bFrb8rs4F0NLGNH35bjM-142" style="edgeStyle=orthogonalEdgeStyle;rounded=0;orthogonalLoop=1;jettySize=auto;html=1;entryX=0.5;entryY=0;entryDx=0;entryDy=0;" edge="1" parent="1" source="bFrb8rs4F0NLGNH35bjM-143" target="bFrb8rs4F0NLGNH35bjM-12">
          <mxGeometry relative="1" as="geometry" />
        </mxCell>
        <mxCell id="bFrb8rs4F0NLGNH35bjM-140" value="" style="shape=waypoint;sketch=0;size=6;pointerEvents=1;points=[];fillColor=none;resizable=0;rotatable=0;perimeter=centerPerimeter;snapToPoint=1;" vertex="1" parent="1">
          <mxGeometry x="610" y="-10" width="20" height="20" as="geometry" />
        </mxCell>
        <mxCell id="bFrb8rs4F0NLGNH35bjM-144" value="" style="edgeStyle=orthogonalEdgeStyle;rounded=0;orthogonalLoop=1;jettySize=auto;html=1;entryDx=0;entryDy=0;endArrow=none;endFill=0;" edge="1" parent="1" source="bFrb8rs4F0NLGNH35bjM-140" target="bFrb8rs4F0NLGNH35bjM-143">
          <mxGeometry relative="1" as="geometry">
            <mxPoint x="620" as="sourcePoint" />
            <mxPoint x="860" y="40" as="targetPoint" />
          </mxGeometry>
        </mxCell>
        <mxCell id="bFrb8rs4F0NLGNH35bjM-145" style="edgeStyle=orthogonalEdgeStyle;rounded=0;orthogonalLoop=1;jettySize=auto;html=1;entryX=0.5;entryY=0;entryDx=0;entryDy=0;" edge="1" parent="1" source="bFrb8rs4F0NLGNH35bjM-146" target="bFrb8rs4F0NLGNH35bjM-43">
          <mxGeometry relative="1" as="geometry" />
        </mxCell>
        <mxCell id="bFrb8rs4F0NLGNH35bjM-216" style="edgeStyle=orthogonalEdgeStyle;rounded=0;orthogonalLoop=1;jettySize=auto;html=1;entryX=0.5;entryY=1;entryDx=0;entryDy=0;" edge="1" parent="1" source="bFrb8rs4F0NLGNH35bjM-143" target="bFrb8rs4F0NLGNH35bjM-106">
          <mxGeometry relative="1" as="geometry" />
        </mxCell>
        <mxCell id="bFrb8rs4F0NLGNH35bjM-143" value="" style="shape=waypoint;sketch=0;size=6;pointerEvents=1;points=[];fillColor=none;resizable=0;rotatable=0;perimeter=centerPerimeter;snapToPoint=1;" vertex="1" parent="1">
          <mxGeometry x="850" y="-10" width="20" height="20" as="geometry" />
        </mxCell>
        <mxCell id="bFrb8rs4F0NLGNH35bjM-147" value="" style="edgeStyle=orthogonalEdgeStyle;rounded=0;orthogonalLoop=1;jettySize=auto;html=1;entryDx=0;entryDy=0;endArrow=none;endFill=0;" edge="1" parent="1" source="bFrb8rs4F0NLGNH35bjM-143" target="bFrb8rs4F0NLGNH35bjM-146">
          <mxGeometry relative="1" as="geometry">
            <mxPoint x="860" as="sourcePoint" />
            <mxPoint x="1100" y="40" as="targetPoint" />
          </mxGeometry>
        </mxCell>
        <mxCell id="bFrb8rs4F0NLGNH35bjM-148" style="edgeStyle=orthogonalEdgeStyle;rounded=0;orthogonalLoop=1;jettySize=auto;html=1;entryX=0.5;entryY=0;entryDx=0;entryDy=0;endArrow=none;endFill=0;" edge="1" parent="1" source="bFrb8rs4F0NLGNH35bjM-218" target="bFrb8rs4F0NLGNH35bjM-25">
          <mxGeometry relative="1" as="geometry">
            <Array as="points">
              <mxPoint x="1300" />
              <mxPoint x="1300" y="260" />
              <mxPoint x="1100" y="260" />
            </Array>
          </mxGeometry>
        </mxCell>
        <mxCell id="bFrb8rs4F0NLGNH35bjM-217" style="edgeStyle=orthogonalEdgeStyle;rounded=0;orthogonalLoop=1;jettySize=auto;html=1;entryX=0.5;entryY=1;entryDx=0;entryDy=0;" edge="1" parent="1" source="bFrb8rs4F0NLGNH35bjM-146" target="bFrb8rs4F0NLGNH35bjM-108">
          <mxGeometry relative="1" as="geometry" />
        </mxCell>
        <mxCell id="bFrb8rs4F0NLGNH35bjM-146" value="" style="shape=waypoint;sketch=0;size=6;pointerEvents=1;points=[];fillColor=none;resizable=0;rotatable=0;perimeter=centerPerimeter;snapToPoint=1;" vertex="1" parent="1">
          <mxGeometry x="1090" y="-10" width="20" height="20" as="geometry" />
        </mxCell>
        <mxCell id="bFrb8rs4F0NLGNH35bjM-158" style="edgeStyle=orthogonalEdgeStyle;rounded=0;orthogonalLoop=1;jettySize=auto;html=1;" edge="1" parent="1" source="bFrb8rs4F0NLGNH35bjM-149" target="bFrb8rs4F0NLGNH35bjM-47">
          <mxGeometry relative="1" as="geometry" />
        </mxCell>
        <mxCell id="bFrb8rs4F0NLGNH35bjM-170" style="edgeStyle=orthogonalEdgeStyle;rounded=0;orthogonalLoop=1;jettySize=auto;html=1;entryX=0.641;entryY=0.626;entryDx=0;entryDy=0;entryPerimeter=0;endArrow=none;endFill=0;" edge="1" parent="1" source="bFrb8rs4F0NLGNH35bjM-149" target="bFrb8rs4F0NLGNH35bjM-165">
          <mxGeometry relative="1" as="geometry">
            <Array as="points">
              <mxPoint x="40" y="260" />
              <mxPoint x="40" y="540" />
            </Array>
          </mxGeometry>
        </mxCell>
        <mxCell id="bFrb8rs4F0NLGNH35bjM-149" value="" style="shape=waypoint;sketch=0;size=6;pointerEvents=1;points=[];fillColor=none;resizable=0;rotatable=0;perimeter=centerPerimeter;snapToPoint=1;" vertex="1" parent="1">
          <mxGeometry x="130" y="250" width="20" height="20" as="geometry" />
        </mxCell>
        <mxCell id="bFrb8rs4F0NLGNH35bjM-157" style="edgeStyle=orthogonalEdgeStyle;rounded=0;orthogonalLoop=1;jettySize=auto;html=1;entryX=0.965;entryY=0.775;entryDx=0;entryDy=0;entryPerimeter=0;endArrow=none;endFill=0;" edge="1" parent="1" source="bFrb8rs4F0NLGNH35bjM-150" target="bFrb8rs4F0NLGNH35bjM-149">
          <mxGeometry relative="1" as="geometry" />
        </mxCell>
        <mxCell id="bFrb8rs4F0NLGNH35bjM-159" style="edgeStyle=orthogonalEdgeStyle;rounded=0;orthogonalLoop=1;jettySize=auto;html=1;" edge="1" parent="1" source="bFrb8rs4F0NLGNH35bjM-150" target="bFrb8rs4F0NLGNH35bjM-51">
          <mxGeometry relative="1" as="geometry" />
        </mxCell>
        <mxCell id="bFrb8rs4F0NLGNH35bjM-150" value="" style="shape=waypoint;sketch=0;size=6;pointerEvents=1;points=[];fillColor=none;resizable=0;rotatable=0;perimeter=centerPerimeter;snapToPoint=1;" vertex="1" parent="1">
          <mxGeometry x="370" y="250" width="20" height="20" as="geometry" />
        </mxCell>
        <mxCell id="bFrb8rs4F0NLGNH35bjM-156" style="edgeStyle=orthogonalEdgeStyle;rounded=0;orthogonalLoop=1;jettySize=auto;html=1;entryX=0.965;entryY=0.813;entryDx=0;entryDy=0;entryPerimeter=0;endArrow=none;endFill=0;" edge="1" parent="1" source="bFrb8rs4F0NLGNH35bjM-151" target="bFrb8rs4F0NLGNH35bjM-150">
          <mxGeometry relative="1" as="geometry" />
        </mxCell>
        <mxCell id="bFrb8rs4F0NLGNH35bjM-160" style="edgeStyle=orthogonalEdgeStyle;rounded=0;orthogonalLoop=1;jettySize=auto;html=1;entryX=0.5;entryY=0;entryDx=0;entryDy=0;" edge="1" parent="1" source="bFrb8rs4F0NLGNH35bjM-151" target="bFrb8rs4F0NLGNH35bjM-15">
          <mxGeometry relative="1" as="geometry" />
        </mxCell>
        <mxCell id="bFrb8rs4F0NLGNH35bjM-162" style="edgeStyle=orthogonalEdgeStyle;rounded=0;orthogonalLoop=1;jettySize=auto;html=1;entryX=0.5;entryY=1;entryDx=0;entryDy=0;" edge="1" parent="1" source="bFrb8rs4F0NLGNH35bjM-151" target="bFrb8rs4F0NLGNH35bjM-123">
          <mxGeometry relative="1" as="geometry" />
        </mxCell>
        <mxCell id="bFrb8rs4F0NLGNH35bjM-151" value="" style="shape=waypoint;sketch=0;size=6;pointerEvents=1;points=[];fillColor=none;resizable=0;rotatable=0;perimeter=centerPerimeter;snapToPoint=1;" vertex="1" parent="1">
          <mxGeometry x="610" y="250" width="20" height="20" as="geometry" />
        </mxCell>
        <mxCell id="bFrb8rs4F0NLGNH35bjM-155" style="edgeStyle=orthogonalEdgeStyle;rounded=0;orthogonalLoop=1;jettySize=auto;html=1;entryX=0.268;entryY=0.45;entryDx=0;entryDy=0;entryPerimeter=0;endArrow=none;endFill=0;" edge="1" parent="1" source="bFrb8rs4F0NLGNH35bjM-152" target="bFrb8rs4F0NLGNH35bjM-151">
          <mxGeometry relative="1" as="geometry" />
        </mxCell>
        <mxCell id="bFrb8rs4F0NLGNH35bjM-161" style="edgeStyle=orthogonalEdgeStyle;rounded=0;orthogonalLoop=1;jettySize=auto;html=1;" edge="1" parent="1" source="bFrb8rs4F0NLGNH35bjM-152" target="bFrb8rs4F0NLGNH35bjM-18">
          <mxGeometry relative="1" as="geometry" />
        </mxCell>
        <mxCell id="bFrb8rs4F0NLGNH35bjM-163" style="edgeStyle=orthogonalEdgeStyle;rounded=0;orthogonalLoop=1;jettySize=auto;html=1;entryX=0.5;entryY=1;entryDx=0;entryDy=0;" edge="1" parent="1" source="bFrb8rs4F0NLGNH35bjM-152" target="bFrb8rs4F0NLGNH35bjM-124">
          <mxGeometry relative="1" as="geometry" />
        </mxCell>
        <mxCell id="bFrb8rs4F0NLGNH35bjM-152" value="" style="shape=waypoint;sketch=0;size=6;pointerEvents=1;points=[];fillColor=none;resizable=0;rotatable=0;perimeter=centerPerimeter;snapToPoint=1;" vertex="1" parent="1">
          <mxGeometry x="850" y="250" width="20" height="20" as="geometry" />
        </mxCell>
        <mxCell id="bFrb8rs4F0NLGNH35bjM-154" style="edgeStyle=orthogonalEdgeStyle;rounded=0;orthogonalLoop=1;jettySize=auto;html=1;entryX=0.94;entryY=0.578;entryDx=0;entryDy=0;entryPerimeter=0;endArrow=none;endFill=0;" edge="1" parent="1" source="bFrb8rs4F0NLGNH35bjM-153" target="bFrb8rs4F0NLGNH35bjM-152">
          <mxGeometry relative="1" as="geometry" />
        </mxCell>
        <mxCell id="bFrb8rs4F0NLGNH35bjM-164" style="edgeStyle=orthogonalEdgeStyle;rounded=0;orthogonalLoop=1;jettySize=auto;html=1;" edge="1" parent="1" source="bFrb8rs4F0NLGNH35bjM-153" target="bFrb8rs4F0NLGNH35bjM-125">
          <mxGeometry relative="1" as="geometry" />
        </mxCell>
        <mxCell id="bFrb8rs4F0NLGNH35bjM-153" value="" style="shape=waypoint;sketch=0;size=6;pointerEvents=1;points=[];fillColor=none;resizable=0;rotatable=0;perimeter=centerPerimeter;snapToPoint=1;" vertex="1" parent="1">
          <mxGeometry x="1090" y="250" width="20" height="20" as="geometry" />
        </mxCell>
        <mxCell id="bFrb8rs4F0NLGNH35bjM-171" style="edgeStyle=orthogonalEdgeStyle;rounded=0;orthogonalLoop=1;jettySize=auto;html=1;entryX=0.474;entryY=0.444;entryDx=0;entryDy=0;entryPerimeter=0;endArrow=none;endFill=0;" edge="1" parent="1" source="bFrb8rs4F0NLGNH35bjM-165" target="bFrb8rs4F0NLGNH35bjM-166">
          <mxGeometry relative="1" as="geometry" />
        </mxCell>
        <mxCell id="bFrb8rs4F0NLGNH35bjM-174" style="edgeStyle=orthogonalEdgeStyle;rounded=0;orthogonalLoop=1;jettySize=auto;html=1;entryX=0.5;entryY=1;entryDx=0;entryDy=0;" edge="1" parent="1" source="bFrb8rs4F0NLGNH35bjM-165" target="bFrb8rs4F0NLGNH35bjM-126">
          <mxGeometry relative="1" as="geometry" />
        </mxCell>
        <mxCell id="bFrb8rs4F0NLGNH35bjM-179" style="edgeStyle=orthogonalEdgeStyle;rounded=0;orthogonalLoop=1;jettySize=auto;html=1;entryX=0.5;entryY=0;entryDx=0;entryDy=0;" edge="1" parent="1" source="bFrb8rs4F0NLGNH35bjM-165" target="bFrb8rs4F0NLGNH35bjM-32">
          <mxGeometry relative="1" as="geometry" />
        </mxCell>
        <mxCell id="bFrb8rs4F0NLGNH35bjM-165" value="" style="shape=waypoint;sketch=0;size=6;pointerEvents=1;points=[];fillColor=none;resizable=0;rotatable=0;perimeter=centerPerimeter;snapToPoint=1;" vertex="1" parent="1">
          <mxGeometry x="130" y="530" width="20" height="20" as="geometry" />
        </mxCell>
        <mxCell id="bFrb8rs4F0NLGNH35bjM-172" style="edgeStyle=orthogonalEdgeStyle;rounded=0;orthogonalLoop=1;jettySize=auto;html=1;entryX=0.808;entryY=0.535;entryDx=0;entryDy=0;entryPerimeter=0;endArrow=none;endFill=0;" edge="1" parent="1" source="bFrb8rs4F0NLGNH35bjM-166" target="bFrb8rs4F0NLGNH35bjM-167">
          <mxGeometry relative="1" as="geometry" />
        </mxCell>
        <mxCell id="bFrb8rs4F0NLGNH35bjM-175" style="edgeStyle=orthogonalEdgeStyle;rounded=0;orthogonalLoop=1;jettySize=auto;html=1;" edge="1" parent="1" source="bFrb8rs4F0NLGNH35bjM-166" target="bFrb8rs4F0NLGNH35bjM-127">
          <mxGeometry relative="1" as="geometry" />
        </mxCell>
        <mxCell id="bFrb8rs4F0NLGNH35bjM-178" style="edgeStyle=orthogonalEdgeStyle;rounded=0;orthogonalLoop=1;jettySize=auto;html=1;entryX=0.5;entryY=0;entryDx=0;entryDy=0;" edge="1" parent="1" source="bFrb8rs4F0NLGNH35bjM-166" target="bFrb8rs4F0NLGNH35bjM-83">
          <mxGeometry relative="1" as="geometry" />
        </mxCell>
        <mxCell id="bFrb8rs4F0NLGNH35bjM-166" value="" style="shape=waypoint;sketch=0;size=6;pointerEvents=1;points=[];fillColor=none;resizable=0;rotatable=0;perimeter=centerPerimeter;snapToPoint=1;" vertex="1" parent="1">
          <mxGeometry x="370" y="530" width="20" height="20" as="geometry" />
        </mxCell>
        <mxCell id="bFrb8rs4F0NLGNH35bjM-173" style="edgeStyle=orthogonalEdgeStyle;rounded=0;orthogonalLoop=1;jettySize=auto;html=1;entryX=0.35;entryY=0.772;entryDx=0;entryDy=0;entryPerimeter=0;endArrow=none;endFill=0;" edge="1" parent="1" source="bFrb8rs4F0NLGNH35bjM-167" target="bFrb8rs4F0NLGNH35bjM-168">
          <mxGeometry relative="1" as="geometry" />
        </mxCell>
        <mxCell id="bFrb8rs4F0NLGNH35bjM-176" style="edgeStyle=orthogonalEdgeStyle;rounded=0;orthogonalLoop=1;jettySize=auto;html=1;" edge="1" parent="1" source="bFrb8rs4F0NLGNH35bjM-167" target="bFrb8rs4F0NLGNH35bjM-86">
          <mxGeometry relative="1" as="geometry" />
        </mxCell>
        <mxCell id="bFrb8rs4F0NLGNH35bjM-167" value="" style="shape=waypoint;sketch=0;size=6;pointerEvents=1;points=[];fillColor=none;resizable=0;rotatable=0;perimeter=centerPerimeter;snapToPoint=1;" vertex="1" parent="1">
          <mxGeometry x="610" y="530" width="20" height="20" as="geometry" />
        </mxCell>
        <mxCell id="bFrb8rs4F0NLGNH35bjM-177" style="edgeStyle=orthogonalEdgeStyle;rounded=0;orthogonalLoop=1;jettySize=auto;html=1;" edge="1" parent="1" source="bFrb8rs4F0NLGNH35bjM-168" target="bFrb8rs4F0NLGNH35bjM-35">
          <mxGeometry relative="1" as="geometry" />
        </mxCell>
        <mxCell id="bFrb8rs4F0NLGNH35bjM-182" style="edgeStyle=orthogonalEdgeStyle;rounded=0;orthogonalLoop=1;jettySize=auto;html=1;entryX=0.366;entryY=0.45;entryDx=0;entryDy=0;entryPerimeter=0;endArrow=none;endFill=0;" edge="1" parent="1" source="bFrb8rs4F0NLGNH35bjM-168" target="bFrb8rs4F0NLGNH35bjM-181">
          <mxGeometry relative="1" as="geometry">
            <Array as="points">
              <mxPoint x="980" y="540" />
              <mxPoint x="980" y="719" />
            </Array>
          </mxGeometry>
        </mxCell>
        <mxCell id="bFrb8rs4F0NLGNH35bjM-168" value="" style="shape=waypoint;sketch=0;size=6;pointerEvents=1;points=[];fillColor=none;resizable=0;rotatable=0;perimeter=centerPerimeter;snapToPoint=1;" vertex="1" parent="1">
          <mxGeometry x="850" y="530" width="20" height="20" as="geometry" />
        </mxCell>
        <mxCell id="bFrb8rs4F0NLGNH35bjM-185" style="edgeStyle=orthogonalEdgeStyle;rounded=0;orthogonalLoop=1;jettySize=auto;html=1;" edge="1" parent="1" source="bFrb8rs4F0NLGNH35bjM-180" target="bFrb8rs4F0NLGNH35bjM-104">
          <mxGeometry relative="1" as="geometry" />
        </mxCell>
        <mxCell id="bFrb8rs4F0NLGNH35bjM-186" style="edgeStyle=orthogonalEdgeStyle;rounded=0;orthogonalLoop=1;jettySize=auto;html=1;" edge="1" parent="1" source="bFrb8rs4F0NLGNH35bjM-187">
          <mxGeometry relative="1" as="geometry">
            <mxPoint x="470" y="720" as="targetPoint" />
          </mxGeometry>
        </mxCell>
        <mxCell id="bFrb8rs4F0NLGNH35bjM-180" value="" style="shape=waypoint;sketch=0;size=6;pointerEvents=1;points=[];fillColor=none;resizable=0;rotatable=0;perimeter=centerPerimeter;snapToPoint=1;" vertex="1" parent="1">
          <mxGeometry x="610" y="710" width="20" height="20" as="geometry" />
        </mxCell>
        <mxCell id="bFrb8rs4F0NLGNH35bjM-183" style="edgeStyle=orthogonalEdgeStyle;rounded=0;orthogonalLoop=1;jettySize=auto;html=1;" edge="1" parent="1" source="bFrb8rs4F0NLGNH35bjM-181" target="bFrb8rs4F0NLGNH35bjM-56">
          <mxGeometry relative="1" as="geometry" />
        </mxCell>
        <mxCell id="bFrb8rs4F0NLGNH35bjM-184" style="edgeStyle=orthogonalEdgeStyle;rounded=0;orthogonalLoop=1;jettySize=auto;html=1;entryX=1.103;entryY=0.713;entryDx=0;entryDy=0;entryPerimeter=0;endArrow=none;endFill=0;" edge="1" parent="1" source="bFrb8rs4F0NLGNH35bjM-181" target="bFrb8rs4F0NLGNH35bjM-180">
          <mxGeometry relative="1" as="geometry" />
        </mxCell>
        <mxCell id="bFrb8rs4F0NLGNH35bjM-181" value="" style="shape=waypoint;sketch=0;size=6;pointerEvents=1;points=[];fillColor=none;resizable=0;rotatable=0;perimeter=centerPerimeter;snapToPoint=1;" vertex="1" parent="1">
          <mxGeometry x="850" y="710" width="20" height="20" as="geometry" />
        </mxCell>
        <mxCell id="bFrb8rs4F0NLGNH35bjM-188" value="" style="edgeStyle=orthogonalEdgeStyle;rounded=0;orthogonalLoop=1;jettySize=auto;html=1;endArrow=none;endFill=0;" edge="1" parent="1" source="bFrb8rs4F0NLGNH35bjM-180" target="bFrb8rs4F0NLGNH35bjM-187">
          <mxGeometry relative="1" as="geometry">
            <mxPoint x="470" y="720" as="targetPoint" />
            <mxPoint x="620" y="720" as="sourcePoint" />
          </mxGeometry>
        </mxCell>
        <mxCell id="bFrb8rs4F0NLGNH35bjM-191" style="edgeStyle=orthogonalEdgeStyle;rounded=0;orthogonalLoop=1;jettySize=auto;html=1;" edge="1" parent="1" source="bFrb8rs4F0NLGNH35bjM-187" target="bFrb8rs4F0NLGNH35bjM-99">
          <mxGeometry relative="1" as="geometry" />
        </mxCell>
        <mxCell id="bFrb8rs4F0NLGNH35bjM-192" style="edgeStyle=orthogonalEdgeStyle;rounded=0;orthogonalLoop=1;jettySize=auto;html=1;entryX=0.892;entryY=0.239;entryDx=0;entryDy=0;entryPerimeter=0;endArrow=none;endFill=0;" edge="1" parent="1" source="bFrb8rs4F0NLGNH35bjM-187" target="bFrb8rs4F0NLGNH35bjM-189">
          <mxGeometry relative="1" as="geometry" />
        </mxCell>
        <mxCell id="bFrb8rs4F0NLGNH35bjM-187" value="" style="shape=waypoint;sketch=0;size=6;pointerEvents=1;points=[];fillColor=none;resizable=0;rotatable=0;perimeter=centerPerimeter;snapToPoint=1;" vertex="1" parent="1">
          <mxGeometry x="460" y="710" width="20" height="20" as="geometry" />
        </mxCell>
        <mxCell id="bFrb8rs4F0NLGNH35bjM-193" style="edgeStyle=orthogonalEdgeStyle;rounded=0;orthogonalLoop=1;jettySize=auto;html=1;" edge="1" parent="1" source="bFrb8rs4F0NLGNH35bjM-189" target="bFrb8rs4F0NLGNH35bjM-94">
          <mxGeometry relative="1" as="geometry" />
        </mxCell>
        <mxCell id="bFrb8rs4F0NLGNH35bjM-194" style="edgeStyle=orthogonalEdgeStyle;rounded=0;orthogonalLoop=1;jettySize=auto;html=1;entryX=0.5;entryY=0;entryDx=0;entryDy=0;endArrow=none;endFill=0;" edge="1" parent="1" source="bFrb8rs4F0NLGNH35bjM-189" target="bFrb8rs4F0NLGNH35bjM-89">
          <mxGeometry relative="1" as="geometry">
            <mxPoint x="230" y="720" as="targetPoint" />
          </mxGeometry>
        </mxCell>
        <mxCell id="bFrb8rs4F0NLGNH35bjM-189" value="" style="shape=waypoint;sketch=0;size=6;pointerEvents=1;points=[];fillColor=none;resizable=0;rotatable=0;perimeter=centerPerimeter;snapToPoint=1;" vertex="1" parent="1">
          <mxGeometry x="370" y="710" width="20" height="20" as="geometry" />
        </mxCell>
        <mxCell id="bFrb8rs4F0NLGNH35bjM-200" value="clk_65Mhz" style="edgeLabel;html=1;align=center;verticalAlign=middle;resizable=0;points=[];" vertex="1" connectable="0" parent="1">
          <mxGeometry x="100" y="-100.00391304347825" as="geometry">
            <mxPoint x="10" as="offset" />
          </mxGeometry>
        </mxCell>
        <mxCell id="bFrb8rs4F0NLGNH35bjM-206" value="clk_65Mhz" style="edgeLabel;html=1;align=center;verticalAlign=middle;resizable=0;points=[];" vertex="1" connectable="0" parent="1">
          <mxGeometry x="1070" y="570" as="geometry">
            <mxPoint x="-727" y="-73" as="offset" />
          </mxGeometry>
        </mxCell>
        <mxCell id="bFrb8rs4F0NLGNH35bjM-219" value="" style="edgeStyle=orthogonalEdgeStyle;rounded=0;orthogonalLoop=1;jettySize=auto;html=1;entryDx=0;entryDy=0;endArrow=none;endFill=0;" edge="1" parent="1" source="bFrb8rs4F0NLGNH35bjM-146" target="bFrb8rs4F0NLGNH35bjM-218">
          <mxGeometry relative="1" as="geometry">
            <mxPoint x="1100" as="sourcePoint" />
            <mxPoint x="1100" y="320" as="targetPoint" />
            <Array as="points" />
          </mxGeometry>
        </mxCell>
        <mxCell id="bFrb8rs4F0NLGNH35bjM-220" style="edgeStyle=orthogonalEdgeStyle;rounded=0;orthogonalLoop=1;jettySize=auto;html=1;" edge="1" parent="1" source="bFrb8rs4F0NLGNH35bjM-218" target="bFrb8rs4F0NLGNH35bjM-116">
          <mxGeometry relative="1" as="geometry" />
        </mxCell>
        <mxCell id="bFrb8rs4F0NLGNH35bjM-218" value="" style="shape=waypoint;sketch=0;size=6;pointerEvents=1;points=[];fillColor=none;resizable=0;rotatable=0;perimeter=centerPerimeter;snapToPoint=1;" vertex="1" parent="1">
          <mxGeometry x="1290" y="-10" width="20" height="20" as="geometry" />
        </mxCell>
        <mxCell id="bFrb8rs4F0NLGNH35bjM-224" value="" style="edgeStyle=orthogonalEdgeStyle;rounded=0;orthogonalLoop=1;jettySize=auto;html=1;exitX=0.75;exitY=1;exitDx=0;exitDy=0;entryDx=0;entryDy=0;endArrow=none;endFill=0;strokeColor=#99CCFF;" edge="1" parent="1" source="bFrb8rs4F0NLGNH35bjM-131" target="bFrb8rs4F0NLGNH35bjM-223">
          <mxGeometry relative="1" as="geometry">
            <mxPoint x="170" y="-90" as="sourcePoint" />
            <mxPoint x="380" y="-90" as="targetPoint" />
            <Array as="points">
              <mxPoint x="170" y="-40" />
            </Array>
          </mxGeometry>
        </mxCell>
        <mxCell id="bFrb8rs4F0NLGNH35bjM-225" value="clk_10Mhz" style="edgeLabel;html=1;align=center;verticalAlign=middle;resizable=0;points=[];" vertex="1" connectable="0" parent="bFrb8rs4F0NLGNH35bjM-224">
          <mxGeometry x="-0.8216" y="-1" relative="1" as="geometry">
            <mxPoint x="1" y="-33" as="offset" />
          </mxGeometry>
        </mxCell>
        <mxCell id="bFrb8rs4F0NLGNH35bjM-229" style="edgeStyle=orthogonalEdgeStyle;rounded=0;orthogonalLoop=1;jettySize=auto;html=1;entryX=0.381;entryY=0.669;entryDx=0;entryDy=0;entryPerimeter=0;endArrow=none;endFill=0;strokeColor=#99CCFF;" edge="1" parent="1" source="bFrb8rs4F0NLGNH35bjM-223" target="bFrb8rs4F0NLGNH35bjM-226">
          <mxGeometry relative="1" as="geometry" />
        </mxCell>
        <mxCell id="bFrb8rs4F0NLGNH35bjM-223" value="" style="shape=waypoint;sketch=0;size=6;pointerEvents=1;points=[];fillColor=none;resizable=0;rotatable=0;perimeter=centerPerimeter;snapToPoint=1;strokeColor=#99CCFF;" vertex="1" parent="1">
          <mxGeometry x="370" y="-50" width="20" height="20" as="geometry" />
        </mxCell>
        <mxCell id="bFrb8rs4F0NLGNH35bjM-230" style="edgeStyle=orthogonalEdgeStyle;rounded=0;orthogonalLoop=1;jettySize=auto;html=1;entryX=0.5;entryY=1;entryDx=0;entryDy=0;strokeColor=#99CCFF;" edge="1" parent="1" source="bFrb8rs4F0NLGNH35bjM-226" target="bFrb8rs4F0NLGNH35bjM-62">
          <mxGeometry relative="1" as="geometry" />
        </mxCell>
        <mxCell id="bFrb8rs4F0NLGNH35bjM-231" style="edgeStyle=orthogonalEdgeStyle;rounded=0;orthogonalLoop=1;jettySize=auto;html=1;entryX=0.41;entryY=0.469;entryDx=0;entryDy=0;entryPerimeter=0;endArrow=none;endFill=0;strokeColor=#99CCFF;" edge="1" parent="1" source="bFrb8rs4F0NLGNH35bjM-226" target="bFrb8rs4F0NLGNH35bjM-227">
          <mxGeometry relative="1" as="geometry" />
        </mxCell>
        <mxCell id="bFrb8rs4F0NLGNH35bjM-226" value="" style="shape=waypoint;sketch=0;size=6;pointerEvents=1;points=[];fillColor=none;resizable=0;rotatable=0;perimeter=centerPerimeter;snapToPoint=1;strokeColor=#99CCFF;" vertex="1" parent="1">
          <mxGeometry x="590" y="-50" width="20" height="20" as="geometry" />
        </mxCell>
        <mxCell id="bFrb8rs4F0NLGNH35bjM-232" style="edgeStyle=orthogonalEdgeStyle;rounded=0;orthogonalLoop=1;jettySize=auto;html=1;entryX=0.161;entryY=1.004;entryDx=0;entryDy=0;entryPerimeter=0;strokeColor=#99CCFF;" edge="1" parent="1" source="bFrb8rs4F0NLGNH35bjM-227" target="bFrb8rs4F0NLGNH35bjM-106">
          <mxGeometry relative="1" as="geometry" />
        </mxCell>
        <mxCell id="bFrb8rs4F0NLGNH35bjM-233" style="edgeStyle=orthogonalEdgeStyle;rounded=0;orthogonalLoop=1;jettySize=auto;html=1;entryX=0.387;entryY=0.69;entryDx=0;entryDy=0;entryPerimeter=0;endArrow=none;endFill=0;strokeColor=#99CCFF;" edge="1" parent="1" source="bFrb8rs4F0NLGNH35bjM-227" target="bFrb8rs4F0NLGNH35bjM-228">
          <mxGeometry relative="1" as="geometry" />
        </mxCell>
        <mxCell id="bFrb8rs4F0NLGNH35bjM-227" value="" style="shape=waypoint;sketch=0;size=6;pointerEvents=1;points=[];fillColor=none;resizable=0;rotatable=0;perimeter=centerPerimeter;snapToPoint=1;strokeColor=#99CCFF;" vertex="1" parent="1">
          <mxGeometry x="810" y="-50" width="20" height="20" as="geometry" />
        </mxCell>
        <mxCell id="bFrb8rs4F0NLGNH35bjM-234" style="edgeStyle=orthogonalEdgeStyle;rounded=0;orthogonalLoop=1;jettySize=auto;html=1;entryX=0.136;entryY=1;entryDx=0;entryDy=0;entryPerimeter=0;strokeColor=#99CCFF;" edge="1" parent="1" source="bFrb8rs4F0NLGNH35bjM-228" target="bFrb8rs4F0NLGNH35bjM-108">
          <mxGeometry relative="1" as="geometry" />
        </mxCell>
        <mxCell id="bFrb8rs4F0NLGNH35bjM-235" style="edgeStyle=orthogonalEdgeStyle;rounded=0;orthogonalLoop=1;jettySize=auto;html=1;entryX=0.5;entryY=1;entryDx=0;entryDy=0;endArrow=classic;endFill=1;strokeColor=#99CCFF;" edge="1" parent="1" source="bFrb8rs4F0NLGNH35bjM-228" target="bFrb8rs4F0NLGNH35bjM-65">
          <mxGeometry relative="1" as="geometry" />
        </mxCell>
        <mxCell id="bFrb8rs4F0NLGNH35bjM-228" value="" style="shape=waypoint;sketch=0;size=6;pointerEvents=1;points=[];fillColor=none;resizable=0;rotatable=0;perimeter=centerPerimeter;snapToPoint=1;strokeColor=#99CCFF;" vertex="1" parent="1">
          <mxGeometry x="1050" y="-50" width="20" height="20" as="geometry" />
        </mxCell>
        <mxCell id="bFrb8rs4F0NLGNH35bjM-236" value="clk_10Mhz" style="edgeLabel;html=1;align=center;verticalAlign=middle;resizable=0;points=[];" vertex="1" connectable="0" parent="1">
          <mxGeometry x="410" y="-69.99666666666674" as="geometry" />
        </mxCell>
        <mxCell id="bFrb8rs4F0NLGNH35bjM-237" value="clk_10Mhz" style="edgeLabel;html=1;align=center;verticalAlign=middle;resizable=0;points=[];" vertex="1" connectable="0" parent="1">
          <mxGeometry x="630" y="-69.99666666666674" as="geometry" />
        </mxCell>
        <mxCell id="bFrb8rs4F0NLGNH35bjM-238" value="clk_10Mhz" style="edgeLabel;html=1;align=center;verticalAlign=middle;resizable=0;points=[];" vertex="1" connectable="0" parent="1">
          <mxGeometry x="200" y="-69.99666666666674" as="geometry">
            <mxPoint x="587" y="-53" as="offset" />
          </mxGeometry>
        </mxCell>
        <mxCell id="bFrb8rs4F0NLGNH35bjM-239" value="clk_10Mhz" style="edgeLabel;html=1;align=center;verticalAlign=middle;resizable=0;points=[];" vertex="1" connectable="0" parent="1">
          <mxGeometry x="200" y="-39.99666666666674" as="geometry">
            <mxPoint x="826" y="-84" as="offset" />
          </mxGeometry>
        </mxCell>
        <mxCell id="bFrb8rs4F0NLGNH35bjM-240" value="clk_10Mhz" style="edgeLabel;html=1;align=center;verticalAlign=middle;resizable=0;points=[];" vertex="1" connectable="0" parent="1">
          <mxGeometry x="180" y="-9.996666666666743" as="geometry">
            <mxPoint x="1009" y="-20" as="offset" />
          </mxGeometry>
        </mxCell>
        <mxCell id="bFrb8rs4F0NLGNH35bjM-247" value="" style="endArrow=none;dashed=1;html=1;dashPattern=1 3;strokeWidth=2;rounded=0;" edge="1" parent="1">
          <mxGeometry width="50" height="50" relative="1" as="geometry">
            <mxPoint x="40" y="-240" as="sourcePoint" />
            <mxPoint x="240" y="-240" as="targetPoint" />
          </mxGeometry>
        </mxCell>
        <mxCell id="bFrb8rs4F0NLGNH35bjM-248" value="" style="endArrow=none;dashed=1;html=1;dashPattern=1 3;strokeWidth=2;rounded=0;" edge="1" parent="1">
          <mxGeometry width="50" height="50" relative="1" as="geometry">
            <mxPoint x="40" y="-70.34" as="sourcePoint" />
            <mxPoint x="240" y="-70.34" as="targetPoint" />
          </mxGeometry>
        </mxCell>
        <mxCell id="bFrb8rs4F0NLGNH35bjM-249" value="" style="endArrow=none;dashed=1;html=1;dashPattern=1 3;strokeWidth=2;rounded=0;" edge="1" parent="1">
          <mxGeometry width="50" height="50" relative="1" as="geometry">
            <mxPoint x="40" y="-240" as="sourcePoint" />
            <mxPoint x="40" y="-70" as="targetPoint" />
          </mxGeometry>
        </mxCell>
        <mxCell id="bFrb8rs4F0NLGNH35bjM-250" value="" style="endArrow=none;dashed=1;html=1;dashPattern=1 3;strokeWidth=2;rounded=0;" edge="1" parent="1">
          <mxGeometry width="50" height="50" relative="1" as="geometry">
            <mxPoint x="240" y="-240" as="sourcePoint" />
            <mxPoint x="240" y="-70" as="targetPoint" />
          </mxGeometry>
        </mxCell>
        <mxCell id="bFrb8rs4F0NLGNH35bjM-251" value="clk_65Mhz" style="edgeLabel;html=1;align=center;verticalAlign=middle;resizable=0;points=[];" vertex="1" connectable="0" parent="1">
          <mxGeometry x="160" y="19.99608695652175" as="geometry">
            <mxPoint x="10" as="offset" />
          </mxGeometry>
        </mxCell>
        <mxCell id="bFrb8rs4F0NLGNH35bjM-252" value="clk_65Mhz" style="edgeLabel;html=1;align=center;verticalAlign=middle;resizable=0;points=[];" vertex="1" connectable="0" parent="1">
          <mxGeometry x="400" y="19.99608695652175" as="geometry">
            <mxPoint x="10" as="offset" />
          </mxGeometry>
        </mxCell>
        <mxCell id="bFrb8rs4F0NLGNH35bjM-253" value="clk_65Mhz" style="edgeLabel;html=1;align=center;verticalAlign=middle;resizable=0;points=[];" vertex="1" connectable="0" parent="1">
          <mxGeometry x="130" y="-80.00391304347825" as="geometry">
            <mxPoint x="524" y="95" as="offset" />
          </mxGeometry>
        </mxCell>
        <mxCell id="bFrb8rs4F0NLGNH35bjM-254" value="clk_65Mhz" style="edgeLabel;html=1;align=center;verticalAlign=middle;resizable=0;points=[];" vertex="1" connectable="0" parent="1">
          <mxGeometry x="140" y="-69.99391304347824" as="geometry">
            <mxPoint x="750" y="85" as="offset" />
          </mxGeometry>
        </mxCell>
        <mxCell id="bFrb8rs4F0NLGNH35bjM-255" value="clk_65Mhz" style="edgeLabel;html=1;align=center;verticalAlign=middle;resizable=0;points=[];" vertex="1" connectable="0" parent="1">
          <mxGeometry x="1120" y="19.99608695652175" as="geometry">
            <mxPoint x="10" as="offset" />
          </mxGeometry>
        </mxCell>
        <mxCell id="bFrb8rs4F0NLGNH35bjM-256" value="clk_65Mhz" style="edgeLabel;html=1;align=center;verticalAlign=middle;resizable=0;points=[];" vertex="1" connectable="0" parent="1">
          <mxGeometry x="165" y="299.99608695652176" as="geometry">
            <mxPoint x="10" as="offset" />
          </mxGeometry>
        </mxCell>
        <mxCell id="bFrb8rs4F0NLGNH35bjM-257" value="clk_65Mhz" style="edgeLabel;html=1;align=center;verticalAlign=middle;resizable=0;points=[];" vertex="1" connectable="0" parent="1">
          <mxGeometry x="405" y="299.99608695652176" as="geometry">
            <mxPoint x="10" as="offset" />
          </mxGeometry>
        </mxCell>
        <mxCell id="bFrb8rs4F0NLGNH35bjM-258" value="clk_65Mhz" style="edgeLabel;html=1;align=center;verticalAlign=middle;resizable=0;points=[];" vertex="1" connectable="0" parent="1">
          <mxGeometry x="135" y="199.99608695652176" as="geometry">
            <mxPoint x="524" y="95" as="offset" />
          </mxGeometry>
        </mxCell>
        <mxCell id="bFrb8rs4F0NLGNH35bjM-259" value="clk_65Mhz" style="edgeLabel;html=1;align=center;verticalAlign=middle;resizable=0;points=[];" vertex="1" connectable="0" parent="1">
          <mxGeometry x="145" y="210.00608695652176" as="geometry">
            <mxPoint x="750" y="85" as="offset" />
          </mxGeometry>
        </mxCell>
        <mxCell id="bFrb8rs4F0NLGNH35bjM-260" value="clk_65Mhz" style="edgeLabel;html=1;align=center;verticalAlign=middle;resizable=0;points=[];" vertex="1" connectable="0" parent="1">
          <mxGeometry x="1125" y="299.99608695652176" as="geometry">
            <mxPoint x="10" as="offset" />
          </mxGeometry>
        </mxCell>
        <mxCell id="bFrb8rs4F0NLGNH35bjM-277" value="clk_65Mhz" style="edgeLabel;html=1;align=center;verticalAlign=middle;resizable=0;points=[];" vertex="1" connectable="0" parent="1">
          <mxGeometry x="165" y="579.9960869565217" as="geometry">
            <mxPoint x="10" as="offset" />
          </mxGeometry>
        </mxCell>
        <mxCell id="bFrb8rs4F0NLGNH35bjM-278" value="clk_65Mhz" style="edgeLabel;html=1;align=center;verticalAlign=middle;resizable=0;points=[];" vertex="1" connectable="0" parent="1">
          <mxGeometry x="405" y="579.9960869565217" as="geometry">
            <mxPoint x="10" as="offset" />
          </mxGeometry>
        </mxCell>
        <mxCell id="bFrb8rs4F0NLGNH35bjM-279" value="clk_65Mhz" style="edgeLabel;html=1;align=center;verticalAlign=middle;resizable=0;points=[];" vertex="1" connectable="0" parent="1">
          <mxGeometry x="135" y="479.99608695652176" as="geometry">
            <mxPoint x="524" y="95" as="offset" />
          </mxGeometry>
        </mxCell>
        <mxCell id="bFrb8rs4F0NLGNH35bjM-280" value="clk_65Mhz" style="edgeLabel;html=1;align=center;verticalAlign=middle;resizable=0;points=[];" vertex="1" connectable="0" parent="1">
          <mxGeometry x="145" y="490.00608695652176" as="geometry">
            <mxPoint x="750" y="85" as="offset" />
          </mxGeometry>
        </mxCell>
        <mxCell id="bFrb8rs4F0NLGNH35bjM-281" value="clk_65Mhz" style="edgeLabel;html=1;align=center;verticalAlign=middle;resizable=0;points=[];" vertex="1" connectable="0" parent="1">
          <mxGeometry x="880" y="739.9960869565217" as="geometry">
            <mxPoint x="10" as="offset" />
          </mxGeometry>
        </mxCell>
        <mxCell id="bFrb8rs4F0NLGNH35bjM-282" value="clk_65Mhz" style="edgeLabel;html=1;align=center;verticalAlign=middle;resizable=0;points=[];" vertex="1" connectable="0" parent="1">
          <mxGeometry x="640" y="739.9960869565217" as="geometry">
            <mxPoint x="10" as="offset" />
          </mxGeometry>
        </mxCell>
        <mxCell id="bFrb8rs4F0NLGNH35bjM-283" value="clk_65Mhz" style="edgeLabel;html=1;align=center;verticalAlign=middle;resizable=0;points=[];" vertex="1" connectable="0" parent="1">
          <mxGeometry x="490" y="739.9960869565217" as="geometry">
            <mxPoint x="10" as="offset" />
          </mxGeometry>
        </mxCell>
        <mxCell id="bFrb8rs4F0NLGNH35bjM-284" value="clk_65Mhz" style="edgeLabel;html=1;align=center;verticalAlign=middle;resizable=0;points=[];" vertex="1" connectable="0" parent="1">
          <mxGeometry x="400" y="739.9960869565217" as="geometry">
            <mxPoint x="10" as="offset" />
          </mxGeometry>
        </mxCell>
        <mxCell id="bFrb8rs4F0NLGNH35bjM-285" value="clk_65Mhz" style="edgeLabel;html=1;align=center;verticalAlign=middle;resizable=0;points=[];" vertex="1" connectable="0" parent="1">
          <mxGeometry x="250" y="739.9960869565217" as="geometry">
            <mxPoint x="10" as="offset" />
          </mxGeometry>
        </mxCell>
        <mxCell id="bFrb8rs4F0NLGNH35bjM-286" value="clk_65Mhz" style="edgeLabel;html=1;align=center;verticalAlign=middle;resizable=0;points=[];" vertex="1" connectable="0" parent="1">
          <mxGeometry x="930" y="789.9960869565217" as="geometry">
            <mxPoint x="200" y="-566" as="offset" />
          </mxGeometry>
        </mxCell>
        <mxCell id="bFrb8rs4F0NLGNH35bjM-288" value="clk_65Mhz" style="edgeLabel;html=1;align=center;verticalAlign=middle;resizable=0;points=[];" vertex="1" connectable="0" parent="1">
          <mxGeometry x="640" y="229.99608695652176" as="geometry">
            <mxPoint x="10" as="offset" />
          </mxGeometry>
        </mxCell>
        <mxCell id="bFrb8rs4F0NLGNH35bjM-289" value="clk_65Mhz" style="edgeLabel;html=1;align=center;verticalAlign=middle;resizable=0;points=[];" vertex="1" connectable="0" parent="1">
          <mxGeometry x="880" y="229.99608695652176" as="geometry">
            <mxPoint x="10" as="offset" />
          </mxGeometry>
        </mxCell>
        <mxCell id="bFrb8rs4F0NLGNH35bjM-290" value="clk_65Mhz" style="edgeLabel;html=1;align=center;verticalAlign=middle;resizable=0;points=[];" vertex="1" connectable="0" parent="1">
          <mxGeometry x="660" y="249.99608695652176" as="geometry">
            <mxPoint x="232" y="-372" as="offset" />
          </mxGeometry>
        </mxCell>
        <mxCell id="bFrb8rs4F0NLGNH35bjM-291" value="clk_65Mhz" style="edgeLabel;html=1;align=center;verticalAlign=middle;resizable=0;points=[];" vertex="1" connectable="0" parent="1">
          <mxGeometry x="670" y="249.99608695652176" as="geometry">
            <mxPoint x="467" y="-387" as="offset" />
          </mxGeometry>
        </mxCell>
        <mxCell id="bFrb8rs4F0NLGNH35bjM-292" value="clk_65Mhz" style="edgeLabel;html=1;align=center;verticalAlign=middle;resizable=0;points=[];" vertex="1" connectable="0" parent="1">
          <mxGeometry x="1120" y="19.99608695652175" as="geometry">
            <mxPoint x="217" y="-144" as="offset" />
          </mxGeometry>
        </mxCell>
        <mxCell id="bFrb8rs4F0NLGNH35bjM-293" value="clk_65Mhz" style="edgeLabel;html=1;align=center;verticalAlign=middle;resizable=0;points=[];" vertex="1" connectable="0" parent="1">
          <mxGeometry x="90" y="499.9960869565217" as="geometry">
            <mxPoint x="10" as="offset" />
          </mxGeometry>
        </mxCell>
      </root>
    </mxGraphModel>
  </diagram>
</mxfile>
